{"title":"Smashing Pumpkins - Siamese Dream - Custom Remaster by MC Lurken","uid":7715064,"size":425375275,"categoryP":"audio","categoryS":"flac","magnet":"?xt=urn:btih:61474d6359d7066cbbecf322c1e13e4478089fd0&amp;dn=Smashing+Pumpkins+-+Siamese+Dream+-+Custom+Remaster+by+MC+Lurken&amp;tr=udp%3A%2F%2Ftracker.openbittorrent.com%3A80&amp;tr=udp%3A%2F%2Fopen.demonii.com%3A1337&amp;tr=udp%3A%2F%2Ftracker.coppersurfer.tk%3A6969&amp;tr=udp%3A%2F%2Fexodus.desync.com%3A6969","seeders":1,"leechers":0,"uploader":"beavis39","files":-1,"time":1349906153,"description":"Smashing Pumpkins - Siamese Dream - Custom Remaster by MC Lurken (a.k.a. Beavis39)\n\n\n\n1 - Cherub Rock\n2 - Quiet\n3 - Today\n4 - Hummer\n5 - Rocket\n6 - Disarm\n7 - Soma\n8 - Geek U.S.A.\n9 - Mayonaise\n10 - Spaceboy\n11 - Silverfuck\n12 - Sweet Sweet\n13 - Luna\n\n\n\nSetup:\n-HP G72-250US\n-Intel Core i3 M350 2.27GHz\n-8Gb PC3-10700 RAM\n-Win7 64-bit SP1\n-SB X-Fi Surround 5.1\n\n\nProcess:\n-Original 16-bit/44.1kHz files joined in Wavelab 6\n-Remove DC offset and save as 64-bit float/44.1kHz\n-Resample to 384kHz in Wavelab w/crystal resampler ultra(slow) relax background priority\n-Create new 64-bit/384kHz master recording in Wavelab\n\n\nAs reported in Wavelab:\n-Original 16-bit/44.1kHz: Apparent Bit Resolution = 16, Peak = -0.2db\n-With DC Offset Removed: Apparent Bit Resolution = 20, Peak = -0.198db\n-64-bit/384kHz Recording: Apparent Bit Resolution = 42, Peak = 0.482db\n\n\n-Resample new 64-bit/384kHz master recording to 64-bit/44.1kHz in Wavelab w/crystal resampler ultra(slow) relax background priority\n-Apply MBIT+ 16-bit Dither in Wavelab w/Izotope Ozone 5 VST Plugin\n-Flac encode level 0 with Trader's Little Helper\n-Tag and pic with xrecode II\n\n\nfoobar2000 1.1.14a / Dynamic Range Meter 1.1.1\nlog date: 2012-10-10 02:42:15\n\n--------------------------------------------------------------------------------\nAnalyzed: ? / ?\n--------------------------------------------------------------------------------\n\nDR         Peak         RMS     Duration Track\n--------------------------------------------------------------------------------\nDR10      -0.12 dB   -11.38 dB      4:58 ?-01 - Cherub Rock\nDR11       0.00 dB   -11.85 dB      3:42 ?-02 - Quiet\nDR11       0.00 dB   -12.68 dB      3:20 ?-03 - Today\nDR11       0.00 dB   -13.96 dB      6:57 ?-04 - Hummer\nDR10      -0.21 dB   -11.72 dB      4:07 ?-05 - Rocket\nDR10       0.00 dB   -13.35 dB      3:17 ?-06 - Disarm\nDR10      -0.09 dB   -14.16 dB      6:40 ?-07 - Soma\nDR10       0.00 dB   -12.01 dB      5:14 ?-08 - Geek U.S.A.\nDR11      -0.02 dB   -12.83 dB      5:49 ?-09 - Mayonaise\nDR12       0.00 dB   -14.44 dB      4:29 ?-10 - Spaceboy\nDR11      -0.06 dB   -13.55 dB      8:43 ?-11 - Silverfuck\nDR10      -4.66 dB   -16.38 dB      1:39 ?-12 - Sweet Sweet\nDR10      -0.26 dB   -13.10 dB      3:20 ?-13 - Luna\n--------------------------------------------------------------------------------\n\nNumber of tracks:  13\nOfficial DR value: DR11 (Increased from DR10)\n\nSamplerate:        44100 Hz\nChannels:          2\nBits per sample:   16\nBitrate:           1411 kbps\nCodec:             PCM\n\n\n\nenjoy :)","torrent":{"xt":"urn:btih:61474d6359d7066cbbecf322c1e13e4478089fd0","amp;dn":"Smashing+Pumpkins+-+Siamese+Dream+-+Custom+Remaster+by+MC+Lurken","amp;tr":["udp%3A%2F%2Ftracker.openbittorrent.com%3A80","udp%3A%2F%2Fopen.demonii.com%3A1337","udp%3A%2F%2Ftracker.coppersurfer.tk%3A6969","udp%3A%2F%2Fexodus.desync.com%3A6969"],"infoHash":"61474d6359d7066cbbecf322c1e13e4478089fd0","infoHashBuffer":{"type":"Buffer","data":[97,71,77,99,89,215,6,108,187,236,243,34,193,225,62,68,120,8,159,208]},"announce":[],"urlList":[]}}